<svg width="23" height="23" viewBox="0 0 23 23" fill="none" xmlns="http://www.w3.org/2000/svg"> <path d="M9.57478 13.3996C9.57478 14.3904 8.85603 14.7036 7.97299 14.7036H5.65759V11.9877H8.0192C8.97411 11.9929 9.57478 12.3882 9.57478 13.3996V13.3996ZM9.17946 9.17433C9.17946 8.26563 8.47612 8.05 7.69576 8.05H5.66272V10.35H7.85491C8.63013 10.35 9.17946 10.0112 9.17946 9.17433V9.17433ZM15.9717 10.3654C15.0321 10.3654 14.4058 10.9507 14.3442 11.8902H17.5375C17.4502 10.9404 16.9574 10.3654 15.9717 10.3654ZM23 2.46429V20.5357C23 21.8962 21.8962 23 20.5357 23H2.46429C1.10379 23 0 21.8962 0 20.5357V2.46429C0 1.10379 1.10379 0 2.46429 0H20.5357C21.8962 0 23 1.10379 23 2.46429ZM13.9489 7.85491H17.9431V6.8846H13.9489V7.85491ZM11.7413 13.5176C11.7413 12.2804 11.156 11.2125 9.94442 10.8685C10.8275 10.4475 11.2895 9.95982 11.2895 8.96897C11.2895 7.00781 9.82634 6.53036 8.13728 6.53036H3.49107V16.3875H8.27076C10.0625 16.3772 11.7413 15.5199 11.7413 13.5176V13.5176ZM19.5089 12.7578C19.5089 10.6478 18.2717 8.88683 16.0384 8.88683C13.8616 8.88683 12.3882 10.5194 12.3882 12.6654C12.3882 14.8884 13.7897 16.4132 16.0384 16.4132C17.7429 16.4132 18.8467 15.6482 19.3806 14.0105H17.6504C17.4605 14.6214 16.6955 14.9397 16.1 14.9397C14.95 14.9397 14.3493 14.2672 14.3493 13.1275H19.4935C19.4987 13.0094 19.5089 12.881 19.5089 12.7578Z" fill="white"/> </svg>