<svg width="21" height="20" viewBox="0 0 21 20" fill="none" xmlns="http://www.w3.org/2000/svg"> <path d="M8.74219 11.6518C8.74219 12.5134 8.08594 12.7857 7.27969 12.7857H5.16562V10.4241H7.32187C8.19375 10.4286 8.74219 10.7723 8.74219 11.6518V11.6518ZM8.38125 7.97768C8.38125 7.1875 7.73906 7 7.02656 7H5.17031V9H7.17188C7.87969 9 8.38125 8.70536 8.38125 7.97768V7.97768ZM14.5828 9.01339C13.725 9.01339 13.1531 9.52232 13.0969 10.3393H16.0125C15.9328 9.51339 15.4828 9.01339 14.5828 9.01339ZM21 2.14286V17.8571C21 19.0402 19.9922 20 18.75 20H2.25C1.00781 20 0 19.0402 0 17.8571V2.14286C0 0.959821 1.00781 0 2.25 0H18.75C19.9922 0 21 0.959821 21 2.14286ZM12.7359 6.83036H16.3828V5.98661H12.7359V6.83036ZM10.7203 11.7545C10.7203 10.6786 10.1859 9.75 9.07969 9.45089C9.88594 9.08482 10.3078 8.66071 10.3078 7.79911C10.3078 6.09375 8.97188 5.67857 7.42969 5.67857H3.1875V14.25H7.55156C9.1875 14.2411 10.7203 13.4955 10.7203 11.7545V11.7545ZM17.8125 11.0938C17.8125 9.25893 16.6828 7.72768 14.6437 7.72768C12.6562 7.72768 11.3109 9.14732 11.3109 11.0134C11.3109 12.9464 12.5906 14.2723 14.6437 14.2723C16.2 14.2723 17.2078 13.6071 17.6953 12.183H16.1156C15.9422 12.7143 15.2438 12.9911 14.7 12.9911C13.65 12.9911 13.1016 12.4063 13.1016 11.4152H17.7984C17.8031 11.3125 17.8125 11.2009 17.8125 11.0938Z" fill="white"/> </svg>