<svg width="23" height="22" viewBox="0 0 23 22" fill="none" xmlns="http://www.w3.org/2000/svg"> <path d="M11.0835 5.33081C7.97803 5.33081 5.47314 7.83569 5.47314 10.9412C5.47314 14.0466 7.97803 16.5515 11.0835 16.5515C14.189 16.5515 16.6938 14.0466 16.6938 10.9412C16.6938 7.83569 14.189 5.33081 11.0835 5.33081ZM11.0835 14.5886C9.07666 14.5886 7.43603 12.9529 7.43603 10.9412C7.43603 8.92944 9.07178 7.2937 11.0835 7.2937C13.0952 7.2937 14.731 8.92944 14.731 10.9412C14.731 12.9529 13.0903 14.5886 11.0835 14.5886ZM18.2319 5.10132C18.2319 5.82886 17.646 6.40991 16.9233 6.40991C16.1958 6.40991 15.6147 5.82397 15.6147 5.10132C15.6147 4.37866 16.2007 3.79272 16.9233 3.79272C17.646 3.79272 18.2319 4.37866 18.2319 5.10132ZM21.9478 6.42944C21.8647 4.67651 21.4644 3.12378 20.1802 1.84448C18.9009 0.565185 17.3481 0.164795 15.5952 0.0769043C13.7886 -0.0256348 8.37354 -0.0256348 6.56689 0.0769043C4.81885 0.159912 3.26611 0.560303 1.98193 1.8396C0.697754 3.1189 0.302246 4.67163 0.214355 6.42456C0.111816 8.2312 0.111816 13.6462 0.214355 15.4529C0.297363 17.2058 0.697754 18.7585 1.98193 20.0378C3.26611 21.3171 4.81396 21.7175 6.56689 21.8054C8.37354 21.908 13.7886 21.908 15.5952 21.8054C17.3481 21.7224 18.9009 21.322 20.1802 20.0378C21.4595 18.7585 21.8599 17.2058 21.9478 15.4529C22.0503 13.6462 22.0503 8.23608 21.9478 6.42944ZM19.6138 17.3914C19.2329 18.3484 18.4956 19.0857 17.5337 19.4714C16.0933 20.0427 12.6753 19.9109 11.0835 19.9109C9.4917 19.9109 6.06885 20.0378 4.6333 19.4714C3.67627 19.0906 2.93896 18.3533 2.55322 17.3914C1.98193 15.9509 2.11377 12.533 2.11377 10.9412C2.11377 9.34937 1.98682 5.92651 2.55322 4.49097C2.93408 3.53394 3.67139 2.79663 4.6333 2.41089C6.07373 1.8396 9.4917 1.97144 11.0835 1.97144C12.6753 1.97144 16.0981 1.84448 17.5337 2.41089C18.4907 2.79175 19.228 3.52905 19.6138 4.49097C20.1851 5.9314 20.0532 9.34937 20.0532 10.9412C20.0532 12.533 20.1851 15.9558 19.6138 17.3914Z" fill="white"/> </svg>