<svg width="25" height="20" viewBox="0 0 25 20" fill="none" xmlns="http://www.w3.org/2000/svg">
<path fill-rule="evenodd" clip-rule="evenodd" d="M2.05882 0.0627362C1.31814 0.258054 0.566569 0.941509 0.209412 1.74454C0.00137252 2.21217 0 2.26668 0 10.0092V17.8031L0.217647 18.2738C0.506961 18.8998 1.07569 19.5121 1.61765 19.781C2.05667 19.999 2.11 20 12.5 20C22.9357 20 22.9414 19.9999 23.3911 19.7779C23.964 19.4951 24.467 18.9586 24.7655 18.3113L25 17.8031V10.0092V2.21531L24.7655 1.70709C24.4827 1.09404 24.0122 0.573157 23.4532 0.254497L23.0392 0.0183791L12.6961 0.00174519C7.00735 -0.00735638 2.22059 0.020053 2.05882 0.0627362ZM6.17647 4.21745C11.052 9.12895 12.4159 10.48 12.499 10.48C12.545 10.48 14.5543 8.50272 16.9641 6.0861L21.3457 1.69223L21.9474 1.66409C22.4191 1.64191 22.6212 1.68334 22.883 1.85564L23.2171 2.07534L22.736 2.57875C22.4714 2.85556 20.7328 4.60087 18.8725 6.45706C17.0123 8.31326 15.4785 9.86231 15.4642 9.89924C15.4499 9.93617 17.0532 11.4708 19.0273 13.3094C21.0013 15.148 22.7985 16.8223 23.0213 17.0301C23.3959 17.3795 23.4176 17.428 23.3108 17.6784C23.1582 18.0354 22.7655 18.3002 22.3669 18.3145C22.0786 18.3249 21.6475 17.956 18.2383 14.7816C16.1446 12.8319 14.361 11.2176 14.2746 11.194C14.1774 11.1674 13.8389 11.4512 13.3848 11.9402C12.9818 12.3741 12.5836 12.7292 12.5 12.7292C12.4164 12.7292 12.0193 12.3761 11.6176 11.9446C11.216 11.513 10.8329 11.16 10.7667 11.16C10.7003 11.16 9.75069 11.9969 8.65637 13.0198C2.5251 18.751 2.92147 18.4076 2.52794 18.3289C2.1698 18.2571 1.61765 17.7487 1.61765 17.4904C1.61765 17.4169 3.4048 15.6931 5.58912 13.6597C7.77343 11.6261 9.54912 9.93272 9.5352 9.89631C9.52118 9.86001 7.98774 8.31211 6.12745 6.45675C4.26716 4.60128 2.52863 2.8564 2.26402 2.57927L1.78294 2.07534L2.11696 1.85805C2.3602 1.69976 2.61078 1.64191 3.03922 1.64516L3.62745 1.64955L6.17647 4.21745Z" fill="white"/>
</svg>
