<svg width="25" height="14" viewBox="0 0 25 14" fill="none" xmlns="http://www.w3.org/2000/svg">
<path d="M23.7203 0.94184C23.8809 0.399305 23.7203 0 22.9477 0H20.3913C19.7402 0 19.4408 0.342882 19.2802 0.724826C19.2802 0.724826 17.9781 3.89757 16.1378 5.95486C15.5432 6.54948 15.2697 6.74045 14.9442 6.74045C14.7836 6.74045 14.5362 6.54948 14.5362 6.00694V0.94184C14.5362 0.290798 14.3539 0 13.8158 0H9.79666C9.38867 0 9.14562 0.303819 9.14562 0.585938C9.14562 1.20226 10.0658 1.34549 10.1612 3.0816V6.84896C10.1612 7.67361 10.0137 7.82552 9.68815 7.82552C8.82009 7.82552 6.71072 4.63976 5.46072 0.993924C5.20898 0.286458 4.96159 0 4.30621 0H1.74978C1.02062 0 0.873047 0.342882 0.873047 0.724826C0.873047 1.40191 1.7411 4.76563 4.91385 9.21007C7.02756 12.2439 10.005 13.8889 12.7133 13.8889C14.3409 13.8889 14.5406 13.5243 14.5406 12.895C14.5406 9.99566 14.393 9.72222 15.209 9.72222C15.5866 9.72222 16.2376 9.91319 17.7567 11.3759C19.4928 13.112 19.7793 13.8889 20.7515 13.8889H23.3079C24.0371 13.8889 24.406 13.5243 24.1934 12.8038C23.7073 11.2891 20.4217 8.17274 20.2741 7.96441C19.8965 7.4783 20.005 7.26128 20.2741 6.82726C20.2784 6.82292 23.3991 2.43056 23.7203 0.94184Z" fill="white"/>
</svg>
